<?xml version="1.0" standalone="no"?><!DOCTYPE svg PUBLIC "-//W3C//DTD SVG 1.1//EN" "http://www.w3.org/Graphics/SVG/1.1/DTD/svg11.dtd"><svg t="1517305889042" class="icon" style="" viewBox="0 0 1025 1024" version="1.1" xmlns="http://www.w3.org/2000/svg" p-id="8589" xmlns:xlink="http://www.w3.org/1999/xlink" width="128.125" height="128"><defs><style type="text/css"></style></defs><path d="M472.2 725.5 119.6 725.5c-30.7 0-55.6-24.9-55.6-55.6l0-550.3c0-30.7 24.9-55.6 55.6-55.6l656.8 0c30.7 0 55.6 24.9 55.6 55.6L832 409.3c0 17.7 14.3 32 32 32s32-14.3 32-32l0-289.7c0-66-53.7-119.6-119.6-119.6L119.6 0c-66 0-119.6 53.7-119.6 119.6l0 550.3c0 66 53.7 119.6 119.6 119.6l352.6 0c17.7 0 32-14.3 32-32S489.9 725.5 472.2 725.5z" p-id="8590"></path><path d="M1010 657.8l-131.4-131.7c-9-9.1-21.3-14.2-34.2-14.2L630 511.9c-3.9 0-7.6 0.4-11.3 1.2L449.9 162.5c-5.3-11.1-16.5-18.1-28.8-18.1s-23.5 7-28.8 18.1L207.2 546.9c-7.7 15.9-1 35 15 42.7 4.5 2.2 9.2 3.2 13.9 3.2 11.9 0 23.3-6.7 28.9-18.1l61.5-127.7c0.5 0 1.1 0 1.7 0l187.8 0 56.1 116.5c1.1 2.3 2.5 4.5 4.1 6.4L576.2 968.2c0 29.7 24.2 53.8 54 53.8l340 0c29.8 0 54-24.1 54-53.8L1024.2 691.6C1024 679 1019 666.8 1010 657.8zM357.1 382.9l63.9-132.8L485 382.9 357.1 382.9zM960 958l-320 0 0-382 197.9 0L960 698.3 960 958z" p-id="8591"></path><path d="M691.7 704l91.9 0c17.7 0 32-14.3 32-32s-14.3-32-32-32l-91.9 0c-17.7 0-32 14.3-32 32S674 704 691.7 704z" p-id="8592"></path><path d="M659.7 768c0 17.7 14.3 32 32 32l206.9 0c17.7 0 32-14.3 32-32s-14.3-32-32-32l-206.9 0C674 736 659.7 750.3 659.7 768z" p-id="8593"></path><path d="M898.6 832l-206.9 0c-17.7 0-32 14.3-32 32s14.3 32 32 32l206.9 0c17.7 0 32-14.3 32-32S916.2 832 898.6 832z" p-id="8594"></path></svg>