<?xml version="1.0" standalone="no"?><!DOCTYPE svg PUBLIC "-//W3C//DTD SVG 1.1//EN" "http://www.w3.org/Graphics/SVG/1.1/DTD/svg11.dtd"><svg t="1515468463452" class="icon" style="" viewBox="0 0 1024 1024" version="1.1" xmlns="http://www.w3.org/2000/svg" p-id="2408" xmlns:xlink="http://www.w3.org/1999/xlink" width="128" height="128"><defs><style type="text/css"></style></defs><path d="M836.359412 380.409986C796.159852 523.730159 664.559605 628.831892 508.397962 628.831892c-154.661476 0-285.223067-103.094006-326.770322-244.304122-19.667945-1.322112-39.315424-3.038196-58.978253-4.51278 41.409109 174.688601 198.398606 304.652582 385.748574 304.652582 186.401364 0 342.743108-128.653125 385.105938-302.004265C874.434589 382.936529 855.336626 382.236588 836.359412 380.409986z" p-id="2409"></path><path d="M138.730519 490.897021l25.864265 44.382771-137.149031 79.924233-25.864265-44.382771 137.149031-79.924233Z" p-id="2410"></path><path d="M282.652603 650.167082l44.588247 25.504683-78.813071 137.78398-44.588247-25.504683 78.813071-137.78398Z" p-id="2411"></path><path d="M486.932469 716.198832l51.368948-0.205476 0.634949 158.737304-51.368948 0.205476-0.634949-158.737304Z" p-id="2412"></path><path d="M696.862611 671.168506l44.382771-25.864265 79.924233 137.149031-44.382771 25.864265-79.924233-137.149031Z" p-id="2413"></path><path d="M856.121116 527.294651l25.504683-44.588247 137.78398 78.813071-25.504683 44.588247-137.78398-78.813071Z" p-id="2414"></path></svg>