<?xml version="1.0" standalone="no"?><!DOCTYPE svg PUBLIC "-//W3C//DTD SVG 1.1//EN" "http://www.w3.org/Graphics/SVG/1.1/DTD/svg11.dtd"><svg t="1515985509195" class="icon" style="" viewBox="0 0 1024 1024" version="1.1" xmlns="http://www.w3.org/2000/svg" p-id="2594" xmlns:xlink="http://www.w3.org/1999/xlink" width="128" height="128"><defs><style type="text/css"></style></defs><path d="M767.986697 174.60776c29.986965 21.286816 56.608276 45.414329 79.868025 72.355935 23.316032 26.970258 43.268456 56.087413 59.914578 87.349417 16.647145 31.29168 29.291117 64.381309 37.932937 99.326193s12.991895 70.355371 12.991895 106.316397c0 61.887512-11.83249 119.945813-35.43914 174.176948-23.663956 54.231135-55.565527 101.501742-95.875604 141.754514-40.252773 40.252773-87.466074 72.181973-141.753491 95.818299-54.172807 23.635303-112.289436 35.438117-174.176948 35.438117-61.191664 0-118.90204-11.802814-173.191504-35.438117-54.172807-23.636327-101.617375-55.565527-142.218072-95.818299-40.600697-40.281425-72.501244-87.523379-95.817276-141.754514-23.317055-54.231135-34.917254-112.289436-34.917254-174.176948 0-35.265178 4.117784-69.891813 12.412704-103.821577 8.352225-33.930787 20.184715-66.207911 35.496445-96.833419 15.311731-30.594809 34.220383-59.21873 56.840566-85.841064 22.620184-26.623357 47.90915-50.576909 75.865875-71.863724 14.674211-10.643408 30.507828-14.645558 47.444569-11.977799 16.935718 2.667759 30.740118 10.962679 41.412179 24.941042 10.67206 13.977339 14.616906 29.609365 12.006452 46.922682-2.667759 17.313318-10.961656 31.29168-24.998347 41.934065-41.87676 30.595832-74.009597 68.209498-96.281857 112.783693-22.272259 44.602847-33.466206 92.510974-33.466206 143.755078 0 43.906999 8.293897 85.34783 24.998347 124.267235 16.587793 38.948057 39.382962 72.878844 68.325132 101.821013 29.000498 28.942169 62.872956 51.9113 101.849666 68.876694 38.918381 16.965393 80.331583 25.433252 124.238582 25.433252 43.964304 0 85.377506-8.467859 124.295887-25.433252s72.849168-39.933501 101.849666-68.876694c28.942169-28.942169 51.852972-62.872956 68.847018-101.821013 16.994046-38.918381 25.461905-80.359212 25.461905-124.267235 0-51.9113-12.005428-100.979856-35.961026-147.235342-23.953551-46.25651-57.537438-84.362386-100.805894-114.291023-14.615882-9.976212-23.431665-23.635303-26.448372-40.918945-3.015683-17.313318 0.521886-33.293267 10.498098-47.938825 9.976212-13.977339 23.606651-22.446221 40.891316-25.433252C737.420541 161.121608 753.370815 164.631548 767.986697 174.60776L767.986697 174.60776 767.986697 174.60776 767.986697 174.60776zM511.44895 542.942733c-17.284665 0-32.075533-6.148024-44.428885-18.473747-12.297071-12.296047-18.444071-27.115568-18.444071-44.428885L448.575993 100.742449c0-17.313318 6.148024-32.277124 18.444071-44.921095 12.353352-12.642948 27.14422-18.965957 44.428885-18.965957 17.97949 0 33.118282 6.323009 45.414329 18.965957 12.354376 12.643971 18.502399 27.607778 18.502399 44.921095l0 379.297652c0 17.313318-6.148024 32.132838-18.502399 44.428885C544.567231 536.795732 529.42844 542.942733 511.44895 542.942733L511.44895 542.942733 511.44895 542.942733 511.44895 542.942733zM511.44895 542.942733" p-id="2595"></path></svg>