<?xml version="1.0" standalone="no"?><!DOCTYPE svg PUBLIC "-//W3C//DTD SVG 1.1//EN" "http://www.w3.org/Graphics/SVG/1.1/DTD/svg11.dtd"><svg t="1515720815949" class="icon" style="" viewBox="0 0 1064 1024" version="1.1" xmlns="http://www.w3.org/2000/svg" p-id="4566" xmlns:xlink="http://www.w3.org/1999/xlink" width="133" height="128"><defs><style type="text/css"></style></defs><path d="M655.387679 462.841663h352.253786a55.982542 55.982542 0 0 0 57.31546-57.315459V61.451685a55.982542 55.982542 0 0 0-57.31546-57.31546h-352.253786a55.982542 55.982542 0 0 0-57.31546 57.31546v344.074519c-4.301689 28.65773 24.537802 57.31546 57.31546 57.315459zM409.646131 0.016298H57.331758A55.982542 55.982542 0 0 0 0.016298 57.331758v344.074518a55.982542 55.982542 0 0 0 57.31546 57.31546h352.314373a55.982542 55.982542 0 0 0 57.31546-57.31546V57.331758C471.081518 24.614688 442.302614 0.016298 409.646131 0.016298zM409.646131 561.174635H57.331758A55.982542 55.982542 0 0 0 0.016298 618.490094v348.133859A55.982542 55.982542 0 0 0 57.331758 1023.939413h352.314373a55.982542 55.982542 0 0 0 57.31546-57.31546v-344.013931c4.119927-32.777657-24.59839-61.435387-57.31546-61.435387zM1007.641465 561.174635h-352.253786a55.982542 55.982542 0 0 0-57.31546 57.315459v344.074519a55.982542 55.982542 0 0 0 57.31546 57.31546h352.253786a55.982542 55.982542 0 0 0 57.31546-57.31546v-344.074519a58.58779 58.58779 0 0 0-57.31546-57.315459zM999.704546 958.505273h-340.257527v-331.775324H999.704546z" fill="" p-id="4567"></path></svg>