<?xml version="1.0" standalone="no"?><!DOCTYPE svg PUBLIC "-//W3C//DTD SVG 1.1//EN" "http://www.w3.org/Graphics/SVG/1.1/DTD/svg11.dtd"><svg t="1515467974970" class="icon" style="" viewBox="0 0 1024 1024" version="1.1" xmlns="http://www.w3.org/2000/svg" p-id="2285" xmlns:xlink="http://www.w3.org/1999/xlink" width="128" height="128"><defs><style type="text/css"></style></defs><path d="M358.4 256c0-84.48 69.12-153.6 153.6-153.6s153.6 69.12 153.6 153.6v102.4h102.4v-102.4c0-140.8-115.2-256-256-256S256 115.2 256 256v102.4h102.4v-102.4zM870.4 409.6H153.6c-28.16 0-51.2 23.04-51.2 51.2v512c0 28.16 23.04 51.2 51.2 51.2h716.8c28.16 0 51.2-23.04 51.2-51.2V460.8c0-28.16-23.04-51.2-51.2-51.2zM563.2 793.6c0 28.16-23.04 51.2-51.2 51.2s-51.2-23.04-51.2-51.2v-153.6c0-28.16 23.04-51.2 51.2-51.2s51.2 23.04 51.2 51.2v153.6z" p-id="2286"></path></svg>