<?xml version="1.0" standalone="no"?><!DOCTYPE svg PUBLIC "-//W3C//DTD SVG 1.1//EN" "http://www.w3.org/Graphics/SVG/1.1/DTD/svg11.dtd"><svg t="1515720633830" class="icon" style="" viewBox="0 0 1024 1024" version="1.1" xmlns="http://www.w3.org/2000/svg" p-id="3895" xmlns:xlink="http://www.w3.org/1999/xlink" width="128" height="128"><defs><style type="text/css"></style></defs><path d="M512.000049 0l432.034707 185.475054V466.464208a550.636009 550.636009 0 0 1-32.763558 187.696313q-32.77744 91.085466-89.40564 164.373102a588.397397 588.397397 0 0 1-137.718004 129.9436 520.107592 520.107592 0 0 1-172.147505 75.522777 519.968764 519.968764 0 0 1-172.147506-75.522777A587.73102 587.73102 0 0 1 202.134539 818.533623q-56.642082-73.301518-89.40564-164.373102A550.233406 550.233406 0 0 1 79.965341 466.464208V185.475054L512.000049 0z m0 510.889371V101.067245L175.479441 246.559653V510.889371h336.520608v415.375271a393.343167 393.343167 0 0 0 124.390455-59.418655 481.499349 481.499349 0 0 0 99.956616-96.069414 517.039479 517.039479 0 0 0 73.301519-120.503254 522.828633 522.828633 0 0 0 38.872017-139.383948z" p-id="3896"></path></svg>