<?xml version="1.0" standalone="no"?><!DOCTYPE svg PUBLIC "-//W3C//DTD SVG 1.1//EN" "http://www.w3.org/Graphics/SVG/1.1/DTD/svg11.dtd"><svg t="1515720840324" class="icon" style="" viewBox="0 0 1024 1024" version="1.1" xmlns="http://www.w3.org/2000/svg" p-id="5286" xmlns:xlink="http://www.w3.org/1999/xlink" width="128" height="128"><defs><style type="text/css"></style></defs><path d="M916.834 74.481c-1.499 0.846-36.255 20.234-101.938 39.376-61.718 17.987-164.146 39.427-301.627 39.427-137.475 0-239.872-21.439-301.563-39.424-65.666-19.144-100.395-38.534-101.881-39.374L55.843 42.611l0.862 62.968c1.871 136.717 20.768 263.248 56.167 376.078 29.922 95.377 71.932 182.06 124.861 257.64C333.128 875.514 440.977 943.8 496.835 972.403c0.031 0.016 0.063 0.032 0.094 0.048l16.188 8.285 16.159-8.341c0.007-0.004 0.012-0.006 0.019-0.01 55.861-28.84 163.771-97.46 258.988-233.052 53.101-75.618 95.249-162.302 125.273-257.641 35.545-112.872 54.517-239.415 56.388-376.115L971 42.523 916.834 74.481zM165.689 372.651c142.289-108.22 256.521 0 256.521 0C277.917 504.92 165.689 372.651 165.689 372.651zM514 940.957c-0.328-0.167-0.668-0.343-1-0.513 0 0 0.023-51.181 0.06-126.829l0.143 0.106C656.104 722.226 679 624 679 624L513.157 624c0.11-205.507 0.256-435.336 0.351-435.336 277.581 0 421.537-83.57 421.537-83.57C927.168 680.659 617 887.993 514 940.957z" p-id="5287"></path><path d="M514 941.183c0-0.037 0.072-0.076 0-0.113C513.928 941.106 514 941.146 514 941.183z" p-id="5288"></path></svg>